<?xml version="1.0" standalone="no"?>
<!DOCTYPE svg PUBLIC "-//W3C//DTD SVG 1.1//EN"
  "http://www.w3.org/Graphics/SVG/1.1/DTD/svg11.dtd">
<svg version="1.1" xmlns="http://www.w3.org/2000/svg" xmlns:xlink="http://www.w3.org/1999/xlink" width="1792" height="1063" viewBox="-992 -32 1792 1063" id="ccdiagram"><filter id="grayscale"><feColorMatrix type="matrix" values="0.3333 0.3333 0.3333 0 0 0.3333 0.3333 0.3333 0 0 0.3333 0.3333 0.3333 0 0 0 0 0 1 0"></feColorMatrix></filter><defs><style type="text/css">@import url('https://fonts.googleapis.com/css?family=Open+Sans:400,700|Inconsolata:400');</style></defs><g><rect x="-992" y="-32" width="1792" height="1063" fill="#ffffff" id="interactionLayer"></rect><g pointer-events="auto"><g opacity="1"><g><g><polygon points="-240 250, 336 583, 336 620, 64 777, 0 777, -576 444, -576 407, -304 250" fill="#ffffff" stroke-width="2" stroke="#e6e7e8"></polygon><polygon points="-272 268, 304 601, 32 759, -544 426" fill="#e6e7e8"></polygon></g></g></g><g opacity="1"><g><g><polygon points="65 93, 593 417, 592 453, 464 527, 400 527, -144 213, -144 176, 0 93" fill="#ffffff" stroke-width="2" stroke="#e6e7e8"></polygon><polygon points="32 111, 560 435, 432 509, -112 194" fill="#e6e7e8"></polygon></g></g></g><g opacity="1"><g><g><polygon points="-96 396, 224 581, 224 618, 64 710, 0 710, -320 525, -320 488, -160 396" fill="#000000" opacity="0.3"></polygon><polygon points="-96 389, 224 574, 224 611, 64 703, 0 703, -320 518, -320 481, -160 389" fill="#ffffff" stroke-width="2" stroke="#ffffff"></polygon><polygon points="-128 407, 192 592, 32 685, -288 500" fill="#ffffff"></polygon></g></g></g></g><g pointer-events="auto"><g opacity="1"><g id="b7231a1e-5ba9-423d-9b0e-9d57266b1b55"><svg x="-128" y="463" overflow="visible"><polygon points="0 0, 224 130, 160 167, -64 37" fill="#673ab7"></polygon><polygon points="0 0, 224 130, 160 167, -64 37" fill="none" stroke-width="20" stroke="#673ab7" opacity="1"></polygon><g cursor="nwse-resize"><polygon points="0 0, -19 -11, 13 -30, -83 -11, -115 44, -83 26, -64 37" fill="#673ab7"></polygon><polygon points="224 130, 243 141, 275 122, 243 178, 147 196, 179 178, 160 167" fill="#673ab7"></polygon></g></svg></g></g></g><g pointer-events="auto"></g><g></g><g pointer-events="auto"><g opacity="1"><g id="2f994156-08ec-4e98-abec-674ce3a492e2"><g><g><polygon points="32 833, 432 601, -272 194, -672 426" stroke="#673ab7" stroke-width="8" fill="none"></polygon></g><g><polygon points="-272 194, -304 176, -528 305, -528 342" stroke="#673ab7" stroke-width="8" fill="#673ab7"></polygon><text font-family="Inconsolata" font-size="20pt" font-weight="bold" fill="#ffffff" transform="translate(-312 207) matrix(0.707 -0.409 0.707 0.409 0 0)" text-anchor="end">GitHub Runner VPC</text><g transform="translate(-304 180) matrix(0.707 0.409 -0.707 0.409 0 0)"><svg width="34" height="32" style="fill: rgb(255, 255, 255);"><svg xmlns="http://www.w3.org/2000/svg" width="34" height="32" viewBox="0 0 34 32"><path d="M34.286 20.571a6.858 6.858 0 0 1-6.857 6.857H8c-4.411 0-8-3.589-8-8a7.993 7.993 0 0 1 4.607-7.232c-.018-.25-.036-.518-.036-.768a9.137 9.137 0 0 1 9.143-9.143c3.821 0 7.089 2.339 8.464 5.679a4.439 4.439 0 0 1 2.964-1.107 4.58 4.58 0 0 1 4.571 4.571 4.49 4.49 0 0 1-.732 2.464c3.036.714 5.304 3.429 5.304 6.679z"></path></svg></svg></g></g></g></g></g><g opacity="1"><g id="aa3e7947-9108-4399-891e-1a5a08f18af1"><g><g><polygon points="448 555, 640 444, 0 74, -192 185" stroke="#00bcd4" stroke-width="8" fill="none"></polygon></g><g><polygon points="0 74, -32 56, -160 130, -160 167" stroke="#00bcd4" stroke-width="8" fill="#00bcd4"></polygon><text font-family="Inconsolata" font-size="20pt" font-weight="bold" fill="#ffffff" transform="translate(-40 87) matrix(0.707 -0.409 0.707 0.409 0 0)" text-anchor="end">Other VPC</text><g transform="translate(-32 60) matrix(0.707 0.409 -0.707 0.409 0 0)"><svg width="34" height="32" style="fill: rgb(255, 255, 255);"><svg xmlns="http://www.w3.org/2000/svg" width="34" height="32" viewBox="0 0 34 32"><path d="M34.286 20.571a6.858 6.858 0 0 1-6.857 6.857H8c-4.411 0-8-3.589-8-8a7.993 7.993 0 0 1 4.607-7.232c-.018-.25-.036-.518-.036-.768a9.137 9.137 0 0 1 9.143-9.143c3.821 0 7.089 2.339 8.464 5.679a4.439 4.439 0 0 1 2.964-1.107 4.58 4.58 0 0 1 4.571 4.571 4.49 4.49 0 0 1-.732 2.464c3.036.714 5.304 3.429 5.304 6.679z"></path></svg></svg></g></g></g></g></g></g><g></g><g pointer-events="auto"></g><g pointer-events="auto"></g><g pointer-events="none"></g><g pointer-events="auto"><g id="b7231a1e-5ba9-423d-9b0e-9d57266b1b55-4c0202fd-6726-4fc4-8e40-f8062a71fa17"><g><g cursor="cell"><line x1="16" y1="472" x2="214" y2="357" stroke="red" stroke-width="8" opacity="0"></line><line x1="16" y1="472" x2="214" y2="357" stroke="#000000" stroke-width="2" stroke-linecap="round"></line><polygon points="224 352, 198 357, 212 359, 215 366, 224 352" stroke-linejoin="round" fill="#000000" stroke="#000000" stroke-width="1"></polygon></g><g cursor="cell"><line x1="-64" y1="463" x2="-48" y2="453" stroke="red" stroke-width="8" opacity="0"></line><line x1="-64" y1="463" x2="-48" y2="453" stroke="#000000" stroke-width="2" stroke-linecap="none"></line></g><g cursor="cell"><line x1="-16" y1="453" x2="-48" y2="453" stroke="red" stroke-width="8" opacity="0"></line><line x1="-16" y1="453" x2="-48" y2="453" stroke="#000000" stroke-width="2" stroke-linecap="round"></line></g><g cursor="cell"><line x1="96" y1="555" x2="112" y2="546" stroke="red" stroke-width="8" opacity="0"></line><line x1="96" y1="555" x2="112" y2="546" stroke="#000000" stroke-width="2" stroke-linecap="none"></line></g><g cursor="cell"><line x1="112" y1="527" x2="112" y2="546" stroke="red" stroke-width="8" opacity="0"></line><line x1="112" y1="527" x2="112" y2="546" stroke="#000000" stroke-width="2" stroke-linecap="round"></line></g><g cursor="cell"><line x1="-16" y1="453" x2="112" y2="527" stroke="red" stroke-width="8" opacity="0"></line><line x1="-16" y1="453" x2="112" y2="527" stroke="#000000" stroke-width="2" stroke-linecap="round"></line></g></g></g><g id="b7231a1e-5ba9-423d-9b0e-9d57266b1b55-71991d76-da0f-4d58-83a5-0e13f0bf2768"><g><g cursor="cell"><line x1="-112" y1="620" x2="-310" y2="734" stroke="red" stroke-width="8" opacity="0"></line><line x1="-112" y1="620" x2="-310" y2="734" stroke="#000000" stroke-width="2" stroke-dasharray="8,6" stroke-linecap="butt"></line><polygon points="-320 740, -294 735, -308 733, -311 725, -320 740" stroke-linejoin="round" fill="#000000" stroke="#000000" stroke-width="1"></polygon></g><g cursor="cell"><line x1="-208" y1="546" x2="-160" y2="518" stroke="red" stroke-width="8" opacity="0"></line><line x1="-208" y1="546" x2="-160" y2="518" stroke="#000000" stroke-width="2" stroke-dasharray="8,6" stroke-linecap="none"></line></g><g cursor="cell"><line x1="-208" y1="564" x2="-208" y2="546" stroke="red" stroke-width="8" opacity="0"></line><line x1="-208" y1="564" x2="-208" y2="546" stroke="#000000" stroke-width="2" stroke-dasharray="8,6" stroke-linecap="butt"></line></g><g cursor="cell"><line x1="-48" y1="638" x2="0" y2="611" stroke="red" stroke-width="8" opacity="0"></line><line x1="-48" y1="638" x2="0" y2="611" stroke="#000000" stroke-width="2" stroke-dasharray="8,6" stroke-linecap="none"></line></g><g cursor="cell"><line x1="-80" y1="638" x2="-48" y2="638" stroke="red" stroke-width="8" opacity="0"></line><line x1="-80" y1="638" x2="-48" y2="638" stroke="#000000" stroke-width="2" stroke-dasharray="8,6" stroke-linecap="butt"></line></g><g cursor="cell"><line x1="-208" y1="564" x2="-80" y2="638" stroke="red" stroke-width="8" opacity="0"></line><line x1="-208" y1="564" x2="-80" y2="638" stroke="#000000" stroke-width="2" stroke-dasharray="8,6" stroke-linecap="butt"></line></g></g></g><g id="b7231a1e-5ba9-423d-9b0e-9d57266b1b55-76ee708b-4a9b-4364-a265-3936b0e1a053"><g><g cursor="cell"><line x1="-16" y1="453" x2="-1" y2="230" stroke="red" stroke-width="8" opacity="0"></line><line x1="-16" y1="453" x2="-1" y2="230" stroke="#000000" stroke-width="2" stroke-linecap="round"></line><polygon points="0 222, -12 236, -1 232, 10 236, 0 222" stroke-linejoin="round" fill="#000000" stroke="#000000" stroke-width="1"></polygon></g><g cursor="cell"><line x1="-64" y1="463" x2="-48" y2="453" stroke="red" stroke-width="8" opacity="0"></line><line x1="-64" y1="463" x2="-48" y2="453" stroke="#000000" stroke-width="2" stroke-linecap="none"></line></g><g cursor="cell"><line x1="-16" y1="453" x2="-48" y2="453" stroke="red" stroke-width="8" opacity="0"></line><line x1="-16" y1="453" x2="-48" y2="453" stroke="#000000" stroke-width="2" stroke-linecap="round"></line></g><g cursor="cell"><line x1="96" y1="555" x2="112" y2="546" stroke="red" stroke-width="8" opacity="0"></line><line x1="96" y1="555" x2="112" y2="546" stroke="#000000" stroke-width="2" stroke-linecap="none"></line></g><g cursor="cell"><line x1="112" y1="527" x2="112" y2="546" stroke="red" stroke-width="8" opacity="0"></line><line x1="112" y1="527" x2="112" y2="546" stroke="#000000" stroke-width="2" stroke-linecap="round"></line></g><g cursor="cell"><line x1="-16" y1="453" x2="112" y2="527" stroke="red" stroke-width="8" opacity="0"></line><line x1="-16" y1="453" x2="112" y2="527" stroke="#000000" stroke-width="2" stroke-linecap="round"></line></g></g></g><g id="b7231a1e-5ba9-423d-9b0e-9d57266b1b55-09ee1354-9930-4360-9bc6-e033d19480d8"><g><g cursor="cell"><line x1="112" y1="527" x2="403" y2="465" stroke="red" stroke-width="8" opacity="0"></line><line x1="112" y1="527" x2="403" y2="465" stroke="#000000" stroke-width="2" stroke-linecap="round"></line><polygon points="416 463, 389 461, 399 466, 397 474, 416 463" stroke-linejoin="round" fill="#000000" stroke="#000000" stroke-width="1"></polygon></g><g cursor="cell"><line x1="-64" y1="463" x2="-48" y2="453" stroke="red" stroke-width="8" opacity="0"></line><line x1="-64" y1="463" x2="-48" y2="453" stroke="#000000" stroke-width="2" stroke-linecap="none"></line></g><g cursor="cell"><line x1="-16" y1="453" x2="-48" y2="453" stroke="red" stroke-width="8" opacity="0"></line><line x1="-16" y1="453" x2="-48" y2="453" stroke="#000000" stroke-width="2" stroke-linecap="round"></line></g><g cursor="cell"><line x1="96" y1="555" x2="112" y2="546" stroke="red" stroke-width="8" opacity="0"></line><line x1="96" y1="555" x2="112" y2="546" stroke="#000000" stroke-width="2" stroke-linecap="none"></line></g><g cursor="cell"><line x1="112" y1="527" x2="112" y2="546" stroke="red" stroke-width="8" opacity="0"></line><line x1="112" y1="527" x2="112" y2="546" stroke="#000000" stroke-width="2" stroke-linecap="round"></line></g><g cursor="cell"><line x1="-16" y1="453" x2="112" y2="527" stroke="red" stroke-width="8" opacity="0"></line><line x1="-16" y1="453" x2="112" y2="527" stroke="#000000" stroke-width="2" stroke-linecap="round"></line></g></g></g><g id="b7231a1e-5ba9-423d-9b0e-9d57266b1b55-6e7d0966-d6db-4885-944b-39b28fa1268a"><g><g cursor="cell"><line x1="-208" y1="564" x2="-390" y2="459" stroke="red" stroke-width="8" opacity="0"></line><line x1="-208" y1="564" x2="-390" y2="459" stroke="#000000" stroke-width="2" stroke-dasharray="8,6" stroke-linecap="butt"></line><polygon points="-400 453, -391 468, -388 460, -374 459, -400 453" stroke-linejoin="round" fill="#000000" stroke="#000000" stroke-width="1"></polygon></g><g cursor="cell"><line x1="-208" y1="546" x2="-160" y2="518" stroke="red" stroke-width="8" opacity="0"></line><line x1="-208" y1="546" x2="-160" y2="518" stroke="#000000" stroke-width="2" stroke-dasharray="8,6" stroke-linecap="none"></line></g><g cursor="cell"><line x1="-208" y1="564" x2="-208" y2="546" stroke="red" stroke-width="8" opacity="0"></line><line x1="-208" y1="564" x2="-208" y2="546" stroke="#000000" stroke-width="2" stroke-dasharray="8,6" stroke-linecap="butt"></line></g><g cursor="cell"><line x1="-48" y1="638" x2="0" y2="611" stroke="red" stroke-width="8" opacity="0"></line><line x1="-48" y1="638" x2="0" y2="611" stroke="#000000" stroke-width="2" stroke-dasharray="8,6" stroke-linecap="none"></line></g><g cursor="cell"><line x1="-80" y1="638" x2="-48" y2="638" stroke="red" stroke-width="8" opacity="0"></line><line x1="-80" y1="638" x2="-48" y2="638" stroke="#000000" stroke-width="2" stroke-dasharray="8,6" stroke-linecap="butt"></line></g><g cursor="cell"><line x1="-208" y1="564" x2="-80" y2="638" stroke="red" stroke-width="8" opacity="0"></line><line x1="-208" y1="564" x2="-80" y2="638" stroke="#000000" stroke-width="2" stroke-dasharray="8,6" stroke-linecap="butt"></line></g></g></g></g><g pointer-events="auto"><g opacity="1"><g id="d33a6a43-d79c-4e39-8efa-310f45783718" transform="translate(0 0)"><svg x="-64" y="111" height="111" width="128" fill-rule="evenodd" stroke-linejoin="round" stroke-miterlimit="1.414" xml:space="preserve"><path d="M64 74v37l64-37V37L64 74Z" fill="#b8b8bb"></path><path d="M0 37v37l64 37V74L0 37Z" fill="#d2d2d4"></path><path d="M0 37 64 0l64 37-64 37L0 37Z" fill="#ececed"></path><path d="m64 73.407 62.111-35.86.514.889-62.487 36.078h-.276L.743 38.072l.514-.89L64 73.407Z" fill="#83838a"></path><path d="M63.486 74h1.027v36h-1.027z" fill="#83838a"></path><path d="M128 37v37l-64 37L0 74V37L64 0l64 37ZM2.054 38.185v34.63L64 108.627l61.946-35.812v-34.63L64 2.373 2.054 38.185Z" fill="#000000"></path></svg><svg x="-6" y="130" width="54" height="36" style="overflow: visible; cursor: default;"><rect transform="matrix(0.707 0.409 -0.707 0.409 0 0)" width="54" height="36" rx="5" ry="5" fill="#4286c5"></rect><text transform="matrix(0.707 0.409 -0.707 0.409 0 0)" font-family="Open Sans" text-anchor="middle" x="50%" font-weight="normal" font-size="20pt" y="80%" fill="#ffffff"><tspan>M5</tspan></text></svg></g></g><g opacity="1"><g id="4c0202fd-6726-4fc4-8e40-f8062a71fa17" transform="translate(0 0)"><g><polygon points="256 259, 320 296, 256 333, 192 296" fill="#ececed"></polygon><polygon points="192 333, 256 370, 256 333, 192 296" fill="#d2d2d4" stroke="#83838a"></polygon><polygon points="256 370, 320 333, 320 296, 256 333" fill="#b8b8bb" stroke="#83838a"></polygon><polygon points="256 259, 192 296, 192 333, 256 370, 320 333, 320 296" fill="none" stroke="#000000" stroke-width="2"></polygon></g></g></g><g opacity="1"><g id="09ee1354-9930-4360-9bc6-e033d19480d8" transform="translate(0 0)"><svg x="384" y="343" height="137.556" width="128" viewBox="0 0 33.867 36.395"><g fill="#4286c5" font-family="sans-serif" font-size="3.175" stroke-width=".265" style="line-height: 0%;"><path d="M.187 12.17v14.365l16.587 9.576-.002-14.363-4.146-7.183-8.292-4.788z" fill="#d2d2d4"></path><path d="m20.956 14.565 8.292-4.788 4.145 2.394.001 14.364-16.587 9.577.001-14.365z" fill="#b8b8bb"></path><path d="m4.333 9.777 8.292 4.787h8.295l8.292-4.787v-4.79L20.92.202h-8.294L4.334 4.988zm8.524 4.788h8.293l-4.148 7.182z" fill="#ececed"></path><path d="m4.393 4.806.002 4.789-4.148 2.393zm24.82 4.788-.001-4.788 4.146 7.182z" fill="#d2d2d4"></path><path d="m208.47 90.288 4.345-4.346 4.346 8.693z" fill="none" stroke="#83838a" stroke-linejoin="round" stroke-width=".264" transform="matrix(.95417 .55084 -.95417 .55084 -100.053 -150.003)"></path><path d="m199.734 94.678 13.037 13.037h17.383L217.117 94.68l-8.692-4.347h-8.69zm13.085-8.75v-8.69h4.345l13.037 13.037.001 17.382-13.037-13.037zm-13.085 4.405h8.69l4.347-4.346v-8.69l-4.347-4.347h-8.69l-4.346 4.346v8.69z" fill="none" stroke="#83838a" stroke-linejoin="round" stroke-width=".257" transform="matrix(.95417 .55084 -.95417 .55084 -100.053 -150.003)"></path><path d="m212.855 107.631-13.037-13.037-4.346-8.692v-8.69l4.346-4.347h8.69l8.692 4.346 13.038 13.038v17.383z" fill="none" stroke="#000000" stroke-width=".514" transform="matrix(.95417 .55084 -.95417 .55084 -100.053 -150.003)"></path><g font-size=".819" stroke-width=".258" style="line-height: 0%;"><path d="M202.697 81.337h.723q1.014 0 1.517-.397.503-.404.503-1.17 0-.772-.425-1.14-.418-.37-1.318-.37h-1zm4.961-1.645q0 1.673-1.049 2.559-1.041.886-2.97.886h-.942v3.685H200.5V76.46h3.31q1.885 0 2.863.816.985.807.985 2.416z" font-family="Open Sans" font-size="14.515" transform="matrix(.95417 .55084 -.95417 .55084 -100.053 -150.003)" style="line-height: 1.25;"></path></g></g></svg></g></g><g opacity="1"><g id="b0c55b86-c6ca-4830-8510-90160e5d1be2" transform="translate(0 0)"><svg x="-192" y="426" height="111" width="128" fill-rule="evenodd" stroke-linejoin="round" stroke-miterlimit="1.414" xml:space="preserve"><path d="M64 74v37l64-37V37L64 74Z" fill="#b8b8bb"></path><path d="M0 37v37l64 37V74L0 37Z" fill="#d2d2d4"></path><path d="M0 37 64 0l64 37-64 37L0 37Z" fill="#ececed"></path><path d="m64 73.407 62.111-35.86.514.889-62.487 36.078h-.276L.743 38.072l.514-.89L64 73.407Z" fill="#83838a"></path><path d="M63.486 74h1.027v36h-1.027z" fill="#83838a"></path><path d="M128 37v37l-64 37L0 74V37L64 0l64 37ZM2.054 38.185v34.63L64 108.627l61.946-35.812v-34.63L64 2.373 2.054 38.185Z" fill="#000000"></path></svg><svg x="-134" y="444" width="54" height="36" style="overflow: visible; cursor: default;"><rect transform="matrix(0.707 0.409 -0.707 0.409 0 0)" width="54" height="36" rx="5" ry="5" fill="#4286c5"></rect><text transform="matrix(0.707 0.409 -0.707 0.409 0 0)" font-family="Open Sans" text-anchor="middle" x="50%" font-weight="normal" font-size="20pt" y="80%" fill="#ffffff"><tspan>T3</tspan></text></svg></g></g><g opacity="1"><g id="35dc66fd-52e3-4259-8fc5-67371cf4abf8" transform="translate(0 0)"><svg x="-32" y="518" height="111" width="128" fill-rule="evenodd" stroke-linejoin="round" stroke-miterlimit="1.414" xml:space="preserve"><path d="M64 74v37l64-37V37L64 74Z" fill="#b8b8bb"></path><path d="M0 37v37l64 37V74L0 37Z" fill="#d2d2d4"></path><path d="M0 37 64 0l64 37-64 37L0 37Z" fill="#ececed"></path><path d="m64 73.407 62.111-35.86.514.889-62.487 36.078h-.276L.743 38.072l.514-.89L64 73.407Z" fill="#83838a"></path><path d="M63.486 74h1.027v36h-1.027z" fill="#83838a"></path><path d="M128 37v37l-64 37L0 74V37L64 0l64 37ZM2.054 38.185v34.63L64 108.627l61.946-35.812v-34.63L64 2.373 2.054 38.185Z" fill="#000000"></path></svg><svg x="26" y="537" width="54" height="36" style="overflow: visible; cursor: default;"><rect transform="matrix(0.707 0.409 -0.707 0.409 0 0)" width="54" height="36" rx="5" ry="5" fill="#4286c5"></rect><text transform="matrix(0.707 0.409 -0.707 0.409 0 0)" font-family="Open Sans" text-anchor="middle" x="50%" font-weight="normal" font-size="20pt" y="80%" fill="#ffffff"><tspan>T3</tspan></text></svg></g></g><g opacity="1"><g id="ccf14d0e-7624-4497-a27b-e429393697ee" transform="translate(0 0)"><g><polygon points="-432 361, -368 398, -432 435, -496 398" fill="#ececed"></polygon><polygon points="-496 435, -432 472, -432 435, -496 398" fill="#d2d2d4" stroke="#83838a"></polygon><polygon points="-432 472, -368 435, -368 398, -432 435" fill="#b8b8bb" stroke="#83838a"></polygon><polygon points="-432 361, -496 398, -496 435, -432 472, -368 435, -368 398" fill="none" stroke="#000000" stroke-width="2"></polygon></g></g></g><g opacity="1"><g id="71991d76-da0f-4d58-83a5-0e13f0bf2768" transform="translate(0 0)"><g><polygon points="-384 666, -320 703, -384 740, -448 703" fill="#ececed"></polygon><polygon points="-448 777, -384 814, -384 740, -448 703" fill="#d2d2d4" stroke="#83838a"></polygon><polygon points="-384 814, -320 777, -320 703, -384 740" fill="#b8b8bb" stroke="#83838a"></polygon><polygon points="-384 666, -448 703, -448 777, -384 814, -320 777, -320 703" fill="none" stroke="#000000" stroke-width="2"></polygon></g></g></g></g><g pointer-events="auto"></g><g pointer-events="auto"><g opacity="1"><g id="de1f28a2-0eb5-45fe-a7e9-0e4faa2a1208" transform="translate(0 0)"><svg x="-432" y="398" overflow="visible"><g transform="scale(1.4131949617798671) matrix(0.707 0.409 -0.707 0.409 0 0)"><circle cx="0" cy="0" fill="transparent" r="31"></circle><svg width="48" height="48" x="-24" y="-24" style="fill: rgb(255, 255, 255);"><svg width="48" height="48" viewBox="0 0 48 48" xmlns="http://www.w3.org/2000/svg"><g fill="none" fill-rule="evenodd"><path d="M35.589 36.759c0 .375.306.682.68.682h.002a.678.678 0 0 0 .68-.682v-.002a.678.678 0 0 0-.68-.68h-.001a.673.673 0 0 0-.481.2.674.674 0 0 0-.2.482Zm-2-.001c0-.717.28-1.39.786-1.896a2.662 2.662 0 0 1 1.894-.785h.003c.716 0 1.39.28 1.897.787a2.66 2.66 0 0 1 .782 1.897 2.664 2.664 0 0 1-.786 1.895c-.26.26-.564.457-.895.59v2.797h-2v-2.8a2.682 2.682 0 0 1-1.681-2.485Zm9.527-3.983-13.687-.006-.004 11.069 13.685.007.006-11.07ZM32.902 30.77l6.713.002v-2.47c.006-2.021-1.487-3.667-3.328-3.673h-.011c-.882 0-1.715.368-2.348 1.036a3.77 3.77 0 0 0-1.014 2.594l-.012 2.51Zm12.214 1.004-.006 13.07a1 1 0 0 1-1 1l-15.685-.007a1 1 0 0 1-1-1l.004-13.07a.997.997 0 0 1 1-1l2.473.002.012-2.518a5.763 5.763 0 0 1 1.56-3.96c1.015-1.072 2.365-1.662 3.802-1.662h.017c2.944.01 5.332 2.556 5.322 5.676v2.468h2.5c.267 0 .52.106.708.294a.997.997 0 0 1 .293.707Zm-30.64-.75h6.974v-2h-6.974v2Zm0-3.487h6.974v-2h-6.974v2Zm0-3.487h6.974v-2h-6.974v2Zm-1.57 9.333H23.11V19.693H12.906v13.69ZM25.11 18.693v15.69a1 1 0 0 1-1 1H11.906a1 1 0 0 1-1-1v-15.69a1 1 0 0 1 1-1H24.11a1 1 0 0 1 1 1ZM5.94 8.975h24.077L26.47 4H9.486L5.94 8.975Zm-2.83 1.458a1 1 0 0 1 .076-1.038l4.97-6.975A1 1 0 0 1 8.97 2h18.015a1 1 0 0 1 .815.42l4.97 6.975a1 1 0 0 1-.814 1.58H4a1 1 0 0 1-.89-.542Zm1.94 29.054h19.888v2H4.05a1 1 0 0 1-1-1V13.462a1 1 0 0 1 1-1h27.905a1 1 0 0 1 1 1v8.717h-2v-7.717H5.05v25.025Z" fill="#B0084D"></path></g></svg></svg></g></svg></g></g><g opacity="1"><g id="5ddf0268-6086-4a1b-b0e4-d3a1dc0979e0" transform="translate(0 0)"><svg x="-384" y="703" overflow="visible"><g transform="scale(1.7469281074217107) matrix(0.707 0.409 -0.707 0.409 0 0)"><circle cx="0" cy="0" fill="#000000" r="23"></circle><svg width="27" height="32" x="-13.5" y="-16" style="fill: rgb(255, 255, 255);"><svg xmlns="http://www.w3.org/2000/svg" width="27" height="32" viewBox="0 0 27 32"><path d="M13.714 2.286c7.571 0 13.714 6.143 13.714 13.714 0 6.054-3.929 11.196-9.375 13.018-.696.125-.946-.304-.946-.661 0-.446.018-1.929.018-3.768 0-1.286-.429-2.107-.929-2.536 3.054-.339 6.268-1.5 6.268-6.768 0-1.5-.536-2.714-1.411-3.679.143-.357.607-1.75-.143-3.643-1.143-.357-3.768 1.411-3.768 1.411a12.895 12.895 0 0 0-6.858 0S7.659 7.606 6.516 7.963c-.75 1.893-.286 3.286-.143 3.643-.875.964-1.411 2.179-1.411 3.679 0 5.25 3.196 6.429 6.25 6.768-.393.357-.75.964-.875 1.839-.786.357-2.786.964-3.982-1.143-.75-1.304-2.107-1.411-2.107-1.411-1.339-.018-.089.839-.089.839.893.411 1.518 2 1.518 2 .804 2.446 4.625 1.625 4.625 1.625 0 1.143.018 2.214.018 2.554 0 .357-.25.786-.946.661-5.446-1.821-9.375-6.964-9.375-13.018 0-7.571 6.143-13.714 13.714-13.714zM5.196 21.982c.036-.071-.018-.161-.125-.214-.107-.036-.196-.018-.232.036-.036.071.018.161.125.214.089.054.196.036.232-.036zm.554.607c.071-.054.054-.179-.036-.286-.089-.089-.214-.125-.286-.054-.071.054-.054.179.036.286.089.089.214.125.286.054zm.536.804c.089-.071.089-.214 0-.339-.071-.125-.214-.179-.304-.107-.089.054-.089.196 0 .321s.232.179.304.125zm.75.75c.071-.071.036-.232-.071-.339-.125-.125-.286-.143-.357-.054-.089.071-.054.232.071.339.125.125.286.143.357.054zm1.018.446c.036-.107-.071-.232-.232-.286-.143-.036-.304.018-.339.125s.071.232.232.268c.143.054.304 0 .339-.107zm1.125.09c0-.125-.143-.214-.304-.196-.161 0-.286.089-.286.196 0 .125.125.214.304.196.161 0 .286-.089.286-.196zm1.035-.179c-.018-.107-.161-.179-.321-.161-.161.036-.268.143-.25.268.018.107.161.179.321.143s.268-.143.25-.25z"></path></svg></svg></g></svg></g></g><g opacity="1"><g id="fb21a850-4bf3-4cee-b789-d059d8f108a3" transform="translate(0 0)"><svg x="256" y="296" overflow="visible"><g transform="scale(1.4131949617798671) matrix(0.707 0.409 -0.707 0.409 0 0)"><circle cx="0" cy="0" fill="transparent" r="39"></circle><svg width="64" height="64" x="-32" y="-32" style="fill: rgb(255, 255, 255);"><svg width="64" height="64" viewBox="0 0 64 64" xmlns="http://www.w3.org/2000/svg"><defs><linearGradient x1="0%" y1="100%" x2="100%" y2="0%" id="Identity-and-Access-Management_svg__a"><stop stop-color="#BD0816" offset="0%"></stop><stop stop-color="#FF5252" offset="100%"></stop></linearGradient></defs><g fill="none" fill-rule="evenodd"><g fill="url(#Identity-and-Access-Management_svg__a)"><path d="M0 0h64v64H0z"></path></g><path d="M12 47h40V18H12v29Zm42-30v31a1 1 0 0 1-1 1H11a1 1 0 0 1-1-1V17a1 1 0 0 1 1-1h42a1 1 0 0 1 1 1ZM35 39h12v-2H35v2Zm10-4h4v-2h-4v2Zm-10 0h6v-2h-6v2Zm-12.5 2.5a.5.5 0 1 0 1.002-.002.5.5 0 0 0-1.002.002Zm3 0a2.501 2.501 0 0 1-1.5 2.288V42h-2v-2.212a2.501 2.501 0 0 1-1.5-2.288c0-1.378 1.121-2.5 2.5-2.5s2.5 1.122 2.5 2.5ZM16 42.995 29.995 43l.001-2H27v-2h2.997l.001-2H27v-2h2.999L30 33.005 16.005 33 16 42.995Zm2-11.994 10.001.003.001-5.004c0-1.024-.802-1.727-1.28-2.055-.875-.6-2.548-.945-3.72-.945H23c-2.127 0-4.997 1.232-4.998 3L18 31.001Zm-3.707 13.7a1 1 0 0 1-.293-.707L14.005 32a1 1 0 0 1 1-1H16l.002-5c.001-3.089 3.874-5 6.998-5h.002c1.565 0 3.651.473 4.852 1.295 1.385.951 2.149 2.267 2.148 3.705l-.001 5.005.999.001a1 1 0 0 1 1 1L31.995 44a1 1 0 0 1-1 1L15 44.994a.996.996 0 0 1-.707-.293ZM47 30h2v-2h-2v2Zm-12 0h9v-2h-9v2Z" fill="#FFF"></path></g></svg></svg></g></svg></g></g></g><g pointer-events="auto"><g opacity="1"><g id="6e0fab71-2bb2-4feb-a3a0-dd5df176f46b"><svg x="-240" y="490" overflow="visible"><text stroke="#ffffff" stroke-width="4" font-family="Open Sans" y="36.5" font-size="25pt" fill="#000000" font-weight="bold" transform="matrix(0.707 0.409 -0.707 0.409 0 0)" xml:space="preserve"><tspan x="8" dy="0">Scheduled Auto Scaling</tspan></text><text font-family="Open Sans" y="36.5" font-size="25pt" fill="#000000" font-weight="bold" transform="matrix(0.707 0.409 -0.707 0.409 0 0)" xml:space="preserve"><tspan x="8" dy="0">Scheduled Auto Scaling</tspan></text></svg></g></g><g opacity="1"><g id="3a34585e-b6b6-47c5-8bb6-feeda250408a"><svg x="-560" y="398" overflow="visible"><text stroke="#ffffff" stroke-width="4" font-family="Open Sans" y="36.5" font-size="25pt" fill="#000000" font-weight="bold" transform="matrix(0.707 0.409 -0.707 0.409 0 0)" xml:space="preserve"><tspan x="8" dy="0">Parameter Store</tspan></text><text font-family="Open Sans" y="36.5" font-size="25pt" fill="#000000" font-weight="bold" transform="matrix(0.707 0.409 -0.707 0.409 0 0)" xml:space="preserve"><tspan x="8" dy="0">Parameter Store</tspan></text></svg></g></g><g opacity="1"><g id="b56bc1d9-3e3f-4d6c-81f0-2623f39f3ea5"><svg x="-528" y="749" overflow="visible"><text stroke="#ffffff" stroke-width="4" font-family="Open Sans" y="36.5" font-size="25pt" fill="#000000" font-weight="bold" transform="matrix(0.707 0.409 -0.707 0.409 0 0)" xml:space="preserve"><tspan x="8" dy="0">GitHub servers</tspan></text><text font-family="Open Sans" y="36.5" font-size="25pt" fill="#000000" font-weight="bold" transform="matrix(0.707 0.409 -0.707 0.409 0 0)" xml:space="preserve"><tspan x="8" dy="0">GitHub servers</tspan></text></svg></g></g><g opacity="1"><g id="29fbd2c9-0690-491c-b2a1-b9c4f630bcad"><svg x="176" y="416" overflow="visible"><text stroke="#ffffff" stroke-width="4" font-family="Open Sans" y="36.5" font-size="25pt" fill="#000000" font-weight="bold" transform="matrix(0.707 -0.409 0.707 0.409 0 0)" xml:space="preserve"><tspan x="8" dy="0">IAM Authentication</tspan></text><text font-family="Open Sans" y="36.5" font-size="25pt" fill="#000000" font-weight="bold" transform="matrix(0.707 -0.409 0.707 0.409 0 0)" xml:space="preserve"><tspan x="8" dy="0">IAM Authentication</tspan></text></svg></g></g><g opacity="1"><g id="79fb7d03-c5cb-4e2e-b777-8d3df049ed6b"><svg x="416" y="500" overflow="visible"><text stroke="#ffffff" stroke-width="4" font-family="Open Sans" y="36.5" font-size="25pt" fill="#000000" font-weight="bold" transform="matrix(0.707 -0.409 0.707 0.409 0 0)" xml:space="preserve"><tspan x="8" dy="0">Some RDS</tspan></text><text font-family="Open Sans" y="36.5" font-size="25pt" fill="#000000" font-weight="bold" transform="matrix(0.707 -0.409 0.707 0.409 0 0)" xml:space="preserve"><tspan x="8" dy="0">Some RDS</tspan></text></svg></g></g><g opacity="1"><g id="75bef2ec-9871-494a-8905-28b4724e5f5a"><svg x="-32" y="241" overflow="visible"><text stroke="#ffffff" stroke-width="4" font-family="Open Sans" y="36.5" font-size="25pt" fill="#000000" font-weight="bold" transform="matrix(0.707 -0.409 0.707 0.409 0 0)" xml:space="preserve"><tspan x="8" dy="0">Some EC2</tspan></text><text font-family="Open Sans" y="36.5" font-size="25pt" fill="#000000" font-weight="bold" transform="matrix(0.707 -0.409 0.707 0.409 0 0)" xml:space="preserve"><tspan x="8" dy="0">Some EC2</tspan></text></svg></g></g><g opacity="1"><g id="21cc7c94-9f47-4d1b-b1b9-83be4e33fe0a" transform="translate(0 0)"><svg x="-160" y="315" overflow="visible"><text stroke="#ffffff" stroke-width="4" font-family="Open Sans" y="46.76" font-size="34pt" fill="#000000" font-weight="bold" transform="matrix(0.707 0.409 -0.707 0.409 0 0)" xml:space="preserve"><tspan x="8" dy="0">GitHub runner infrastructure</tspan></text><text font-family="Open Sans" y="46.76" font-size="34pt" fill="#000000" font-weight="bold" transform="matrix(0.707 0.409 -0.707 0.409 0 0)" xml:space="preserve"><tspan x="8" dy="0">GitHub runner infrastructure</tspan></text></svg></g></g></g><g pointer-events="auto"><g></g><g></g><g></g><g></g><g></g><g></g><g></g><g></g><g></g><g></g></g></g></svg>
